
<region>
sample=../Samples/vowel_sustain/or/vowel_or_eb3.wav
lokey=50
hikey=50
pitch_keycenter=51

<region>
sample=../Samples/vowel_sustain/or/vowel_or_e3.wav
lokey=51
hikey=51
pitch_keycenter=52

<region>
sample=../Samples/vowel_sustain/or/vowel_or_f3.wav
tune=15
lokey=52
hikey=52
pitch_keycenter=53

<region>
sample=../Samples/vowel_sustain/or/vowel_or_gb3.wav
tune=20
lokey=53
hikey=53
pitch_keycenter=54

<region>
sample=../Samples/vowel_sustain/or/vowel_or_g3.wav
tune=30
lokey=54
hikey=54
pitch_keycenter=55

<region>
sample=../Samples/vowel_sustain/or/vowel_or_ab3.wav
tune=15
lokey=55
hikey=55
pitch_keycenter=56

<region>
sample=../Samples/vowel_sustain/or/vowel_or_a3.wav
tune=20
lokey=56
hikey=56
pitch_keycenter=57

<region>
sample=../Samples/vowel_sustain/or/vowel_or_bb3.wav
lokey=57
hikey=57
pitch_keycenter=58

<region>
sample=../Samples/vowel_sustain/or/vowel_or_b3.wav
tune=10
lokey=58
hikey=58
pitch_keycenter=59

<region>
sample=../Samples/vowel_sustain/or/vowel_or_c4.wav
tune=20
lokey=59
hikey=59

<region>
sample=../Samples/vowel_sustain/or/vowel_or_db4.wav
tune=15
lokey=60
hikey=60
pitch_keycenter=61

<region>
sample=../Samples/vowel_sustain/or/vowel_or_d4.wav
tune=25
lokey=61
hikey=61
pitch_keycenter=62

<region>
sample=../Samples/vowel_sustain/or/vowel_or_eb4.wav
tune=25
lokey=62
hikey=62
pitch_keycenter=63

<region>
sample=../Samples/vowel_sustain/or/vowel_or_e4.wav
tune=30
lokey=63
hikey=63
pitch_keycenter=64

<region>
sample=../Samples/vowel_sustain/or/vowel_or_f4.wav
tune=20
lokey=64
hikey=64
pitch_keycenter=65

<region>
sample=../Samples/vowel_sustain/or/vowel_or_gb4.wav
tune=15
lokey=65
hikey=65
pitch_keycenter=66

<region>
sample=../Samples/vowel_sustain/or/vowel_or_g4.wav
tune=15
lokey=66
hikey=66
pitch_keycenter=67

<region>
sample=../Samples/vowel_sustain/or/vowel_or_ab4.wav
tune=10
lokey=67
hikey=67
pitch_keycenter=68

<region>
sample=../Samples/vowel_sustain/or/vowel_or_a4.wav
tune=15
lokey=68
hikey=68
pitch_keycenter=69

<region>
sample=../Samples/vowel_sustain/or/vowel_or_bb4.wav
lokey=69
hikey=69
pitch_keycenter=70

<region>
sample=../Samples/vowel_sustain/or/vowel_or_ab4.wav
tune=10
lokey=70
hikey=70
pitch_keycenter=68
